# xmcd
#
# Track frame offsets: 
#        150
#        13233
#        45952
#        89128
#        126996
#        139220
#        175582
#        254510
#        268650
#        298294
#
# Disc length: 4662 seconds
#
# Revision: 1
# Processed by: cddbd v1.5.2PL0 Copyright (c) Steve Scherf et al.
# Submitted via: ExactAudioCopy v0.99pb5
#
DISCID=9a12340a
DTITLE=Reader's Digest - Sternstunden der Archäologie CD3
DYEAR=2006
DGENRE=Hearbook
TTITLE0=Qumran und die Schriftrollen vom Toten Meer 1
TTITLE1=Qumran und die Schriftrollen vom Toten Meer 2
TTITLE2=Qumran und die Schriftrollen vom Toten Meer 3
TTITLE3=Qumran und die Schriftrollen vom Toten Meer 4
TTITLE4=Die letzten Tage von Pompeji und Herculaneum 1
TTITLE5=Die letzten Tage von Pompeji und Herculaneum 2
TTITLE6=Die letzten Tage von Pompeji und Herculaneum 3
TTITLE7=Im Grab des ersten Kaisers von China 1
TTITLE8=Im Grab des ersten Kaisers von China 2
TTITLE9=Im Grab des ersten Kaisers von China 3
EXTD=Reader's Digest Hörbuch - Sprecher: Anja Buczkowski, Achim Höppne
EXTD=r
EXTT0=
EXTT1=
EXTT2=
EXTT3=
EXTT4=
EXTT5=
EXTT6=
EXTT7=
EXTT8=
EXTT9=
PLAYORDER=
